<svg width="159" height="40" viewBox="0 0 159 40" fill="none" xmlns="http://www.w3.org/2000/svg">
<g clip-path="url(#clip0_27_33)">
<path d="M47.8506 27.9554H59.0954V24.5269H51.8472V11.6126H47.8506V27.9554Z" fill="white"/>
<path d="M65.7576 25.6697C64.1544 25.6697 63.3189 24.2526 63.3189 22.1268C63.3189 20.0011 64.1544 18.5611 65.7576 18.5611C67.3607 18.5611 68.2188 20.0011 68.2188 22.1268C68.2188 24.2526 67.3607 25.6697 65.7576 25.6697ZM65.7801 28.3211C69.5058 28.3211 71.9445 25.6468 71.9445 22.1268C71.9445 18.6068 69.5058 15.9326 65.7801 15.9326C62.077 15.9326 59.5933 18.6068 59.5933 22.1268C59.5933 25.6468 62.077 28.3211 65.7801 28.3211Z" fill="white"/>
<path d="M78.3933 32.0012C80.1094 32.0012 81.6223 31.6126 82.6384 30.6983C83.5641 29.8526 84.1738 28.5726 84.1738 26.8126V16.2526H80.6513V17.5097H80.6062C79.9288 16.5269 78.8901 15.9097 77.3547 15.9097C74.487 15.9097 72.5 18.3326 72.5 21.7612C72.5 25.3497 74.916 27.3154 77.5127 27.3154C78.9127 27.3154 79.7933 26.744 80.4707 25.9669H80.561V27.1326C80.561 28.5497 79.9062 29.3726 78.3482 29.3726C77.1289 29.3726 76.5192 28.8469 76.316 28.2297H72.7484C73.1097 30.6754 75.2096 32.0012 78.3933 32.0012ZM78.3708 24.5497C76.9934 24.5497 76.0902 23.4069 76.0902 21.6469C76.0902 19.864 76.9934 18.7212 78.3708 18.7212C79.9062 18.7212 80.7191 20.0469 80.7191 21.624C80.7191 23.2697 79.9739 24.5497 78.3708 24.5497Z" fill="white"/>
<path d="M91.4168 25.6697C89.8136 25.6697 88.9781 24.2526 88.9781 22.1268C88.9781 20.0011 89.8136 18.5611 91.4168 18.5611C93.0199 18.5611 93.878 20.0011 93.878 22.1268C93.878 24.2526 93.0199 25.6697 91.4168 25.6697ZM91.4393 28.3211C95.165 28.3211 97.6036 25.6468 97.6036 22.1268C97.6036 18.6068 95.165 15.9326 91.4393 15.9326C87.7362 15.9326 85.2524 18.6068 85.2524 22.1268C85.2524 25.6468 87.7362 28.3211 91.4393 28.3211Z" fill="white"/>
<path d="M98.6777 27.9554H102.358V16.2526H98.6777V27.9554ZM98.6777 14.6297H102.358V11.6126H98.6777V14.6297Z" fill="white"/>
<path d="M103.956 31.8183H107.637V26.744H107.682C108.404 27.7269 109.466 28.3212 110.956 28.3212C113.982 28.3212 115.991 25.8983 115.991 22.104C115.991 18.584 114.117 15.9097 111.046 15.9097C109.466 15.9097 108.337 16.6183 107.546 17.6697H107.479V16.2526H103.956V31.8183ZM110.007 25.4412C108.427 25.4412 107.524 24.1383 107.524 22.2412C107.524 20.344 108.337 18.904 109.94 18.904C111.52 18.904 112.265 20.2297 112.265 22.2412C112.265 24.2297 111.407 25.4412 110.007 25.4412Z" fill="white"/>
<path d="M121.983 28.3212C125.009 28.3212 127.244 26.9954 127.244 24.4354C127.244 21.4412 124.851 20.9154 122.819 20.5726C121.351 20.2983 120.041 20.184 120.041 19.3612C120.041 18.6297 120.741 18.2869 121.645 18.2869C122.661 18.2869 123.361 18.6069 123.496 19.6583H126.883C126.702 17.3497 124.941 15.9097 121.667 15.9097C118.935 15.9097 116.677 17.1897 116.677 19.6583C116.677 22.4012 118.822 22.9497 120.832 23.2926C122.367 23.5669 123.767 23.6812 123.767 24.7326C123.767 25.4869 123.067 25.8983 121.961 25.8983C120.741 25.8983 119.974 25.3269 119.838 24.1612H116.361C116.474 26.744 118.596 28.3212 121.983 28.3212Z" fill="white"/>
<path d="M132.244 28.2983C133.847 28.2983 134.863 27.6583 135.698 26.5154H135.766V27.9554H139.288V16.2526H135.608V22.7897C135.608 24.184 134.84 25.144 133.576 25.144C132.402 25.144 131.837 24.4354 131.837 23.1554V16.2526H128.179V23.9326C128.179 26.5383 129.579 28.2983 132.244 28.2983Z" fill="white"/>
<path d="M140.889 27.9554H144.57V21.3954C144.57 20.0012 145.247 19.0183 146.399 19.0183C147.505 19.0183 148.024 19.7497 148.024 21.0069V27.9554H151.705V21.3954C151.705 20.0012 152.36 19.0183 153.534 19.0183C154.64 19.0183 155.16 19.7497 155.16 21.0069V27.9554H158.84V20.344C158.84 17.7154 157.531 15.9097 154.911 15.9097C153.421 15.9097 152.179 16.5497 151.276 17.9669H151.231C150.644 16.7097 149.492 15.9097 147.979 15.9097C146.308 15.9097 145.202 16.7097 144.479 17.9212H144.412V16.2526H140.889V27.9554Z" fill="white"/>
<path fill-rule="evenodd" clip-rule="evenodd" d="M19.4602 0.916138C30.0556 0.916138 38.6449 9.61087 38.6449 20.3364C38.6449 31.062 30.0556 39.7568 19.4602 39.7568C8.86468 39.7568 0.275391 31.062 0.275391 20.3364C0.275391 9.61087 8.86468 0.916138 19.4602 0.916138ZM37.9085 20.3364C37.9085 10.0226 29.6489 1.66149 19.4602 1.66149C18.6382 1.66149 17.829 1.71589 17.0355 1.82133C17.5482 1.77596 18.067 1.7528 18.5912 1.7528C28.3271 1.7528 36.2196 9.7422 36.2196 19.5976C36.2196 29.453 28.3271 37.4424 18.5912 37.4424C9.37397 37.4424 1.80893 30.2815 1.02915 21.1557C1.45276 31.0894 9.54251 39.0113 19.4602 39.0113C29.6489 39.0113 37.9085 30.6503 37.9085 20.3364ZM35.4832 19.5976C35.4832 10.1538 27.9205 2.49816 18.5912 2.49816C17.8337 2.49816 17.0879 2.54863 16.3567 2.64643C16.8069 2.60809 17.2624 2.58853 17.7224 2.58853C26.5987 2.58853 33.7943 9.87259 33.7943 18.8578C33.7943 27.8432 26.5987 35.1272 17.7224 35.1272C9.32958 35.1272 2.43932 28.6151 1.71359 20.3101C2.08257 29.4234 9.49782 36.6971 18.5912 36.6971C27.9205 36.6971 35.4832 29.0413 35.4832 19.5976ZM17.7224 3.33389C26.192 3.33389 33.058 10.2842 33.058 18.8578C33.058 27.4314 26.192 34.3817 17.7224 34.3817C9.44899 34.3817 2.70571 27.7497 2.39773 19.451C3.06266 26.9414 9.28087 32.8118 16.8536 32.8118C24.8697 32.8118 31.3682 26.2336 31.3682 18.119C31.3682 10.0043 24.8697 3.42612 16.8536 3.42612C16.4389 3.42612 16.0282 3.44373 15.6223 3.47823C16.3089 3.38306 17.01 3.33389 17.7224 3.33389ZM30.6318 18.119C30.6318 10.416 24.4631 4.17148 16.8536 4.17148C16.2106 4.17148 15.5779 4.21605 14.9585 4.30232C15.2967 4.27552 15.6386 4.26187 15.9837 4.26187C23.1404 4.26187 28.942 10.1347 28.942 17.3793C28.942 24.6237 23.1404 30.4966 15.9837 30.4966C9.24772 30.4966 3.71216 25.2938 3.08471 18.6415C3.35616 26.1024 9.41681 32.0665 16.8536 32.0665C24.4631 32.0665 30.6318 25.822 30.6318 18.119ZM15.9837 5.00722C22.7337 5.00722 28.2056 10.5464 28.2056 17.3793C28.2056 24.2121 22.7337 29.7513 15.9837 29.7513C9.3667 29.7513 3.97788 24.4282 3.76813 17.7815C4.33464 23.6198 9.19852 28.1813 15.1148 28.1813C21.412 28.1813 26.5167 23.0138 26.5167 16.6394C26.5167 10.2651 21.412 5.0976 15.1148 5.0976C14.8261 5.0976 14.5398 5.10846 14.2564 5.12982C14.8207 5.04902 15.3974 5.00722 15.9837 5.00722ZM25.7805 16.6394C25.7805 10.6767 21.0053 5.84296 15.1148 5.84296C14.5772 5.84296 14.0488 5.88323 13.5325 5.96097C13.7681 5.94388 14.0061 5.93519 14.2461 5.93519C19.683 5.93519 24.0906 10.3969 24.0906 15.9006C24.0906 21.4044 19.683 25.866 14.2461 25.866C9.15128 25.866 4.96046 21.9484 4.45304 16.9267C4.60347 22.7567 9.31935 27.436 15.1148 27.436C21.0053 27.436 25.7805 22.6022 25.7805 16.6394ZM14.2461 6.68055C19.2764 6.68055 23.3542 10.8085 23.3542 15.9006C23.3542 20.9928 19.2764 25.1207 14.2461 25.1207C9.27972 25.1207 5.24175 21.0972 5.13978 16.0946C5.59855 20.2888 9.11156 23.5508 13.3772 23.5508C17.9546 23.5508 21.6654 19.7945 21.6654 15.1609C21.6654 10.5273 17.9546 6.77092 13.3772 6.77092C13.2021 6.77092 13.0284 6.77641 12.856 6.78724C13.3092 6.71699 13.7734 6.68055 14.2461 6.68055ZM20.9291 15.1609C20.9291 10.9389 17.548 7.51628 13.3772 7.51628C12.9584 7.51628 12.5475 7.5508 12.1472 7.61717C12.2665 7.61081 12.3865 7.60759 12.5074 7.60759C16.2252 7.60759 19.2392 10.6585 19.2392 14.422C19.2392 18.1855 16.2252 21.2365 12.5074 21.2365C9.06967 21.2365 6.2338 18.6279 5.82597 15.2595C5.87819 19.4361 9.239 22.8054 13.3772 22.8054C17.548 22.8054 20.9291 19.3829 20.9291 15.1609ZM12.5074 8.35294C15.8186 8.35294 18.5029 11.0701 18.5029 14.422C18.5029 17.7739 15.8186 20.4911 12.5074 20.4911C9.1962 20.4911 6.51194 17.7739 6.51194 14.422C6.51194 14.414 6.51196 14.4059 6.51199 14.3979C6.85672 16.9522 9.02059 18.9203 11.6386 18.9203C14.4963 18.9203 16.813 16.5752 16.813 13.6823C16.813 10.7893 14.4963 8.44426 11.6386 8.44426C11.5739 8.44426 11.5096 8.44545 11.4455 8.44783C11.7901 8.38548 12.145 8.35294 12.5074 8.35294ZM16.0767 13.6823C16.0767 11.2011 14.0897 9.18962 11.6386 9.18962C9.18744 9.18962 7.20041 11.2011 7.20041 13.6823C7.20041 16.1634 9.18744 18.1749 11.6386 18.1749C14.0897 18.1749 16.0767 16.1634 16.0767 13.6823Z" fill="white"/>
</g>
<defs>
<clipPath id="clip0_27_33">
<rect width="159" height="40" fill="white"/>
</clipPath>
</defs>
</svg>
