<svg width="178" height="31" viewBox="0 0 178 31" fill="none" xmlns="http://www.w3.org/2000/svg">
<path d="M26.7608 23.7603H36.0019L13.1098 1.0206H3.86865L26.7608 23.7603Z" fill="white"/>
<path d="M17.8574 1.0206L39.925 22.9413V1.0206H33.9531V7.94137L26.9859 1.0206L17.8574 1.0206Z" fill="white"/>
<path d="M0 1.78186V23.7602H5.97186V16.8394L12.939 23.7602H22.1257L0 1.78186Z" fill="white"/>
<path d="M54.3362 20.3411H59.687V23.4732H50.2515V6.81592H54.3362V20.3411Z" fill="white"/>
<path d="M66.986 23.6631C65.6802 23.6631 64.5017 23.3863 63.4506 22.8325C62.4155 22.2789 61.5954 21.4879 60.9902 20.4598C60.4011 19.4315 60.1064 18.2293 60.1064 16.853C60.1064 15.4926 60.4089 14.2982 61.0141 13.2701C61.6193 12.2259 62.4474 11.4271 63.4984 10.8735C64.5495 10.3198 65.7279 10.043 67.0338 10.043C68.3396 10.043 69.518 10.3198 70.5691 10.8735C71.6202 11.4271 72.4482 12.2259 73.0534 13.2701C73.6586 14.2982 73.9611 15.4926 73.9611 16.853C73.9611 18.2134 73.6506 19.4156 73.0295 20.4598C72.4244 21.4879 71.5883 22.2789 70.5213 22.8325C69.4703 23.3863 68.2918 23.6631 66.986 23.6631ZM66.986 20.1513C67.7663 20.1513 68.4272 19.8665 68.9686 19.297C69.526 18.7275 69.8047 17.9129 69.8047 16.853C69.8047 15.7931 69.534 14.9785 68.9926 14.409C68.467 13.8395 67.8141 13.5548 67.0338 13.5548C66.2375 13.5548 65.5766 13.8395 65.0511 14.409C64.5256 14.9627 64.2629 15.7774 64.2629 16.853C64.2629 17.9129 64.5176 18.7275 65.0272 19.297C65.5528 19.8665 66.2057 20.1513 66.986 20.1513Z" fill="white"/>
<path d="M80.4754 10.043C81.415 10.043 82.2352 10.2328 82.9359 10.6124C83.6525 10.9921 84.2019 11.4904 84.5841 12.1073V10.2328H88.6689V23.4495C88.6689 24.6676 88.422 25.767 87.9283 26.7477C87.4506 27.7443 86.7101 28.5353 85.7068 29.1206C84.7195 29.7059 83.4853 29.9986 82.0043 29.9986C80.0295 29.9986 78.4291 29.5319 77.2029 28.5985C75.9767 27.681 75.276 26.4314 75.1008 24.8495H79.1378C79.2651 25.3557 79.5677 25.7511 80.0455 26.0359C80.5233 26.3364 81.1124 26.4867 81.8132 26.4867C82.6572 26.4867 83.326 26.2416 83.8198 25.7511C84.3293 25.2766 84.5841 24.5094 84.5841 23.4495V21.575C84.1859 22.1919 83.6366 22.6981 82.9359 23.0936C82.2352 23.4732 81.415 23.6631 80.4754 23.6631C79.3767 23.6631 78.3813 23.3863 77.4895 22.8325C76.5977 22.263 75.889 21.4643 75.3636 20.436C74.854 19.392 74.5991 18.1898 74.5991 16.8293C74.5991 15.4689 74.854 14.2746 75.3636 13.2463C75.889 12.2181 76.5977 11.4271 77.4895 10.8735C78.3813 10.3198 79.3767 10.043 80.4754 10.043ZM84.5841 16.853C84.5841 15.8406 84.2975 15.0418 83.7242 14.4564C83.1668 13.8711 82.482 13.5784 81.6699 13.5784C80.8577 13.5784 80.165 13.8711 79.5917 14.4564C79.0342 15.0259 78.7555 15.8169 78.7555 16.8293C78.7555 17.8418 79.0342 18.6484 79.5917 19.2496C80.165 19.8349 80.8577 20.1275 81.6699 20.1275C82.482 20.1275 83.1668 19.8349 83.7242 19.2496C84.2975 18.6643 84.5841 17.8654 84.5841 16.853Z" fill="white"/>
<path d="M96.9748 23.6631C95.6689 23.6631 94.4905 23.3863 93.4394 22.8325C92.4044 22.2789 91.5842 21.4879 90.9791 20.4598C90.3898 19.4315 90.0952 18.2293 90.0952 16.853C90.0952 15.4926 90.3978 14.2982 91.0029 13.2701C91.6081 12.2259 92.4361 11.4271 93.4873 10.8735C94.5383 10.3198 95.7168 10.043 97.0225 10.043C98.3284 10.043 99.5069 10.3198 100.558 10.8735C101.609 11.4271 102.437 12.2259 103.042 13.2701C103.647 14.2982 103.95 15.4926 103.95 16.853C103.95 18.2134 103.639 19.4156 103.018 20.4598C102.413 21.4879 101.577 22.2789 100.51 22.8325C99.4591 23.3863 98.2807 23.6631 96.9748 23.6631ZM96.9748 20.1513C97.7551 20.1513 98.416 19.8665 98.9574 19.297C99.5149 18.7275 99.7936 17.9129 99.7936 16.853C99.7936 15.7931 99.5229 14.9785 98.9813 14.409C98.4558 13.8395 97.803 13.5548 97.0225 13.5548C96.2264 13.5548 95.5655 13.8395 95.0399 14.409C94.5144 14.9627 94.2516 15.7774 94.2516 16.853C94.2516 17.9129 94.5065 18.7275 95.016 19.297C95.5416 19.8665 96.1945 20.1513 96.9748 20.1513Z" fill="white"/>
<path d="M107.455 8.85656C106.738 8.85656 106.149 8.6509 105.687 8.23961C105.241 7.8125 105.018 7.29048 105.018 6.67354C105.018 6.04078 105.241 5.51875 105.687 5.10746C106.149 4.68035 106.738 4.4668 107.455 4.4668C108.155 4.4668 108.729 4.68035 109.174 5.10746C109.636 5.51875 109.867 6.04078 109.867 6.67354C109.867 7.29048 109.636 7.8125 109.174 8.23961C108.729 8.6509 108.155 8.85656 107.455 8.85656ZM109.485 10.2328V23.4732H105.4V10.2328H109.485Z" fill="white"/>
<path d="M115.813 12.1073C116.212 11.4904 116.761 10.9921 117.461 10.6124C118.162 10.2328 118.982 10.043 119.922 10.043C121.021 10.043 122.016 10.3198 122.908 10.8735C123.8 11.4271 124.5 12.2181 125.01 13.2463C125.536 14.2746 125.798 15.4689 125.798 16.8293C125.798 18.1898 125.536 19.392 125.01 20.436C124.5 21.4643 123.8 22.263 122.908 22.8325C122.016 23.3863 121.021 23.6631 119.922 23.6631C118.999 23.6631 118.178 23.4732 117.461 23.0936C116.761 22.7139 116.212 22.2235 115.813 21.6224V29.785H111.729V10.2328H115.813V12.1073ZM121.642 16.8293C121.642 15.8169 121.355 15.0259 120.782 14.4564C120.225 13.8711 119.531 13.5784 118.704 13.5784C117.891 13.5784 117.199 13.8711 116.626 14.4564C116.068 15.0418 115.79 15.8406 115.79 16.853C115.79 17.8654 116.068 18.6643 116.626 19.2496C117.199 19.8349 117.891 20.1275 118.704 20.1275C119.516 20.1275 120.209 19.8349 120.782 19.2496C121.355 18.6484 121.642 17.8418 121.642 16.8293Z" fill="white"/>
<path d="M132.647 23.6631C131.484 23.6631 130.45 23.4654 129.542 23.0698C128.634 22.6744 127.917 22.1365 127.393 21.4564C126.867 20.7603 126.572 19.9851 126.508 19.1309H130.546C130.593 19.5897 130.808 19.9615 131.191 20.2462C131.572 20.5309 132.042 20.6733 132.6 20.6733C133.109 20.6733 133.499 20.5784 133.77 20.3886C134.057 20.1829 134.2 19.9219 134.2 19.6055C134.2 19.2258 134 18.949 133.603 18.775C133.204 18.5852 132.559 18.3795 131.668 18.1581C130.712 17.9366 129.916 17.7072 129.279 17.47C128.642 17.2168 128.093 16.8293 127.631 16.3073C127.169 15.7695 126.938 15.0497 126.938 14.1479C126.938 13.3887 127.145 12.7006 127.559 12.0836C127.989 11.4509 128.611 10.9526 129.422 10.5887C130.251 10.2249 131.23 10.043 132.36 10.043C134.033 10.043 135.347 10.4543 136.302 11.2768C137.274 12.0994 137.831 13.1909 137.974 14.5514H134.2C134.136 14.0926 133.929 13.7287 133.579 13.4598C133.245 13.1909 132.798 13.0565 132.241 13.0565C131.764 13.0565 131.398 13.1513 131.142 13.3412C130.888 13.5152 130.761 13.7604 130.761 14.0767C130.761 14.4564 130.959 14.7412 131.357 14.931C131.771 15.1209 132.409 15.3107 133.269 15.5004C134.256 15.7536 135.06 16.0067 135.681 16.2598C136.302 16.497 136.844 16.8926 137.305 17.4462C137.784 17.9841 138.03 18.7117 138.046 19.6292C138.046 20.4044 137.823 21.1004 137.377 21.7173C136.947 22.3185 136.318 22.793 135.49 23.141C134.678 23.489 133.73 23.6631 132.647 23.6631Z" fill="white"/>
<path d="M152.99 10.2328V23.4732H148.905V21.6699C148.491 22.2552 147.926 22.7298 147.209 23.0936C146.509 23.4416 145.729 23.6156 144.869 23.6156C143.849 23.6156 142.949 23.3942 142.169 22.9512C141.388 22.4924 140.784 21.8359 140.354 20.9817C139.924 20.1275 139.709 19.1231 139.709 17.9683V10.2328H143.769V17.4224C143.769 18.3084 144.001 18.9964 144.462 19.4868C144.924 19.9773 145.545 20.2224 146.325 20.2224C147.121 20.2224 147.75 19.9773 148.213 19.4868C148.675 18.9964 148.905 18.3084 148.905 17.4224V10.2328H152.99Z" fill="white"/>
<path d="M172.215 10.0904C173.871 10.0904 175.186 10.5887 176.157 11.5853C177.145 12.5819 177.638 13.9661 177.638 15.7378V23.4732H173.577V16.2835C173.577 15.4293 173.347 14.7729 172.884 14.3141C172.438 13.8395 171.817 13.6022 171.021 13.6022C170.225 13.6022 169.596 13.8395 169.134 14.3141C168.689 14.7729 168.466 15.4293 168.466 16.2835V23.4732H164.404V16.2835C164.404 15.4293 164.174 14.7729 163.712 14.3141C163.265 13.8395 162.645 13.6022 161.848 13.6022C161.052 13.6022 160.423 13.8395 159.961 14.3141C159.516 14.7729 159.293 15.4293 159.293 16.2835V23.4732H155.208V10.2328H159.293V11.8938C159.707 11.3401 160.247 10.9051 160.917 10.5887C161.586 10.2565 162.342 10.0904 163.186 10.0904C164.189 10.0904 165.081 10.304 165.861 10.7311C166.658 11.1582 167.278 11.7672 167.725 12.5582C168.187 11.8305 168.816 11.2373 169.612 10.7786C170.409 10.3198 171.277 10.0904 172.215 10.0904Z" fill="white"/>
</svg>
