<svg width="58" height="58" viewBox="0 0 58 58" fill="none" xmlns="http://www.w3.org/2000/svg">
<path d="M50.75 32.625C49.6625 32.625 48.9375 31.9 48.9375 30.8125C48.9375 19.7563 40.0563 10.875 29 10.875C17.9438 10.875 9.0625 19.7563 9.0625 30.8125C9.0625 31.9 8.3375 32.625 7.25 32.625C6.1625 32.625 5.4375 31.9 5.4375 30.8125C5.4375 17.7625 15.95 7.25 29 7.25C42.05 7.25 52.5625 17.7625 52.5625 30.8125C52.5625 31.9 51.8375 32.625 50.75 32.625Z" fill="white"/>
<path d="M9.0625 34.4375H5.4375C4.35 34.4375 3.625 33.7125 3.625 32.625V29C3.625 27.9125 4.35 27.1875 5.4375 27.1875H9.0625C10.15 27.1875 10.875 27.9125 10.875 29V32.625C10.875 33.7125 10.15 34.4375 9.0625 34.4375Z" fill="white"/>
<path d="M52.5625 34.4375H48.9375C47.85 34.4375 47.125 33.7125 47.125 32.625V29C47.125 27.9125 47.85 27.1875 48.9375 27.1875H52.5625C53.65 27.1875 54.375 27.9125 54.375 29V32.625C54.375 33.7125 53.65 34.4375 52.5625 34.4375Z" fill="white"/>
<path d="M30.8125 12.6875H27.1875C26.1 12.6875 25.375 11.9625 25.375 10.875V7.25C25.375 6.1625 26.1 5.4375 27.1875 5.4375H30.8125C31.9 5.4375 32.625 6.1625 32.625 7.25V10.875C32.625 11.9625 31.9 12.6875 30.8125 12.6875Z" fill="white"/>
<path d="M7.25 12.6875C5.25625 12.6875 3.625 11.0563 3.625 9.0625C3.625 7.06875 5.25625 5.4375 7.25 5.4375C9.24375 5.4375 10.875 7.06875 10.875 9.0625C10.875 11.0563 9.24375 12.6875 7.25 12.6875Z" fill="white"/>
<path d="M50.75 12.6875C48.7562 12.6875 47.125 11.0563 47.125 9.0625C47.125 7.06875 48.7562 5.4375 50.75 5.4375C52.7438 5.4375 54.375 7.06875 54.375 9.0625C54.375 11.0563 52.7438 12.6875 50.75 12.6875Z" fill="white"/>
<path d="M50.75 10.875H7.25C6.1625 10.875 5.4375 10.15 5.4375 9.0625C5.4375 7.975 6.1625 7.25 7.25 7.25H50.75C51.8375 7.25 52.5625 7.975 52.5625 9.0625C52.5625 10.15 51.8375 10.875 50.75 10.875Z" fill="white"/>
<path d="M21.75 45.3125H36.25C37.3375 41.6875 38.9687 38.425 41.325 35.8875C41.8687 35.3438 41.8687 34.4375 41.5062 33.7125L30.8125 17.5813V29.3626C32.9875 30.0876 34.4375 32.0813 34.4375 34.4375C34.4375 37.5188 32.0812 39.875 29 39.875C25.9187 39.875 23.5625 37.5188 23.5625 34.4375C23.5625 32.0813 25.0125 30.0876 27.1875 29.3626V17.5813L16.675 33.7125C16.1312 34.4375 16.3125 35.3438 16.8562 35.8875C19.0312 38.425 20.6625 41.6875 21.75 45.3125Z" fill="white"/>
<path d="M21.75 48.9375V52.5625C21.75 53.65 22.475 54.375 23.5625 54.375H34.4375C35.525 54.375 36.25 53.65 36.25 52.5625V48.9375H21.75Z" fill="white"/>
</svg>
