<svg width="54" height="54" viewBox="0 0 54 54" fill="none" xmlns="http://www.w3.org/2000/svg">
<path d="M40.5 22.5C40.507 18.4317 39.1356 14.481 36.6094 11.292C34.0833 8.10308 30.5513 5.86394 26.5893 4.93968C22.6274 4.01542 18.4692 4.46057 14.7927 6.20254C11.1162 7.94452 8.13829 10.8806 6.3444 14.532C4.5505 18.1835 4.04648 22.3349 4.91451 26.3095C5.78253 30.2842 7.9714 33.8475 11.1243 36.4186C14.2771 38.9897 18.208 40.417 22.276 40.4676C26.3439 40.5183 30.3091 39.1893 33.525 36.6975L47.925 51.0975L51.0975 47.925L36.6975 33.525C39.1534 30.3738 40.4911 26.4952 40.5 22.5ZM22.5 36C19.8299 36 17.2199 35.2082 14.9998 33.7248C12.7797 32.2414 11.0494 30.133 10.0276 27.6662C9.00584 25.1994 8.73849 22.485 9.25939 19.8663C9.78029 17.2475 11.066 14.8421 12.9541 12.9541C14.8421 11.0661 17.2475 9.7803 19.8663 9.2594C22.485 8.7385 25.1994 9.00585 27.6662 10.0276C30.133 11.0494 32.2414 12.7797 33.7248 14.9998C35.2082 17.2199 36 19.83 36 22.5C36 26.0804 34.5777 29.5142 32.0459 32.0459C29.5142 34.5777 26.0804 36 22.5 36Z" fill="white"/>
</svg>
