<svg width="50" height="50" viewBox="0 0 50 50" fill="none" xmlns="http://www.w3.org/2000/svg">
<g clip-path="url(#clip0_33_204)">
<path d="M46.875 23.4375V26.5625H9.375V9.375H25V6.25H7.8125C7.3981 6.25 7.00067 6.41462 6.70765 6.70765C6.41462 7.00067 6.25 7.3981 6.25 7.8125V26.5625H3.125V4.6875C3.125 4.2731 3.28962 3.87567 3.58265 3.58265C3.87567 3.28962 4.2731 3.125 4.6875 3.125H28.125V0H4.6875C3.4443 0 2.25201 0.49386 1.37294 1.37294C0.49386 2.25201 0 3.4443 0 4.6875L0 35.9375C0 36.3519 0.16462 36.7493 0.457646 37.0424C0.750671 37.3354 1.1481 37.5 1.5625 37.5H15.3906L14.2813 45.3125H12.5C12.0856 45.3125 11.6882 45.4771 11.3951 45.7701C11.1021 46.0632 10.9375 46.4606 10.9375 46.875H7.8125V50H42.1875V46.875H39.0625C39.0625 46.4606 38.8979 46.0632 38.6049 45.7701C38.3118 45.4771 37.9144 45.3125 37.5 45.3125H35.7344L34.625 37.5H48.4375C48.8519 37.5 49.2493 37.3354 49.5424 37.0424C49.8354 36.7493 50 36.3519 50 35.9375V23.4375H46.875ZM17.4219 45.3125L18.5312 37.5H31.4531L32.5625 45.3125H17.4219ZM46.875 34.375H3.125V29.6875H46.875V34.375Z" fill="white"/>
<path d="M33.7031 14.0625L31.7187 16.0469L33.9219 18.25L35.9375 16.2969C36.4261 16.5856 36.9518 16.8063 37.5 16.9531V20.3125H40.625V16.9687C41.1732 16.822 41.6989 16.6012 42.1875 16.3125L44.1719 18.2969L46.375 16.0938L44.4219 14.0625C44.7106 13.5739 44.9313 13.0482 45.0781 12.5H48.4375V9.375H45.0938C44.947 8.82679 44.7262 8.30112 44.4375 7.8125L46.4219 5.82812L44.2031 3.57812L42.1875 5.57812C41.6989 5.28945 41.1732 5.06867 40.625 4.92188V1.5625H37.5V4.90625C36.9518 5.05304 36.4261 5.27382 35.9375 5.5625L33.9219 3.57812L31.7031 5.79688L33.7031 7.8125C33.4144 8.30112 33.1937 8.82679 33.0469 9.375H29.6875V12.5H33.0312C33.183 13.049 33.409 13.5747 33.7031 14.0625ZM39.0625 7.8125C39.6806 7.8125 40.2848 7.99578 40.7987 8.33916C41.3126 8.68254 41.7131 9.17059 41.9496 9.74161C42.1861 10.3126 42.248 10.941 42.1275 11.5472C42.0069 12.1533 41.7092 12.7102 41.2722 13.1472C40.8352 13.5842 40.2783 13.8819 39.6722 14.0025C39.066 14.123 38.4376 14.0611 37.8666 13.8246C37.2956 13.5881 36.8075 13.1876 36.4642 12.6737C36.1208 12.1598 35.9375 11.5556 35.9375 10.9375C35.9375 10.1087 36.2667 9.31384 36.8528 8.72779C37.4388 8.14174 38.2337 7.8125 39.0625 7.8125Z" fill="white"/>
</g>
<defs>
<clipPath id="clip0_33_204">
<rect width="50" height="50" fill="white"/>
</clipPath>
</defs>
</svg>
