<svg width="54" height="54" viewBox="0 0 54 54" fill="none" xmlns="http://www.w3.org/2000/svg">
<g clip-path="url(#clip0_33_196)">
<path d="M48.9375 0H5.0625C3.71984 0 2.43217 0.533369 1.48277 1.48277C0.533369 2.43217 0 3.71984 0 5.0625L0 48.9375C0 50.2802 0.533369 51.5678 1.48277 52.5172C2.43217 53.4666 3.71984 54 5.0625 54H48.9375C50.2802 54 51.5678 53.4666 52.5172 52.5172C53.4666 51.5678 54 50.2802 54 48.9375V5.0625C54 3.71984 53.4666 2.43217 52.5172 1.48277C51.5678 0.533369 50.2802 0 48.9375 0ZM50.625 48.9375C50.625 49.3851 50.4472 49.8143 50.1307 50.1307C49.8143 50.4472 49.3851 50.625 48.9375 50.625H5.0625C4.61495 50.625 4.18572 50.4472 3.86926 50.1307C3.55279 49.8143 3.375 49.3851 3.375 48.9375V16.875H50.625V48.9375ZM50.625 13.5H3.375V5.0625C3.375 4.61495 3.55279 4.18572 3.86926 3.86926C4.18572 3.55279 4.61495 3.375 5.0625 3.375H48.9375C49.3851 3.375 49.8143 3.55279 50.1307 3.86926C50.4472 4.18572 50.625 4.61495 50.625 5.0625V13.5Z" fill="white"/>
<path d="M10.125 6.75H6.75V10.125H10.125V6.75Z" fill="white"/>
<path d="M16.875 6.75H13.5V10.125H16.875V6.75Z" fill="white"/>
<path d="M47.25 6.75H43.875V10.125H47.25V6.75Z" fill="white"/>
<path d="M13.5 32.0625H40.5C40.9476 32.0625 41.3768 31.8847 41.6932 31.5682C42.0097 31.2518 42.1875 30.8226 42.1875 30.375V23.625C42.1875 23.1774 42.0097 22.7482 41.6932 22.4318C41.3768 22.1153 40.9476 21.9375 40.5 21.9375H13.5C13.0524 21.9375 12.6232 22.1153 12.3068 22.4318C11.9903 22.7482 11.8125 23.1774 11.8125 23.625V30.375C11.8125 30.8226 11.9903 31.2518 12.3068 31.5682C12.6232 31.8847 13.0524 32.0625 13.5 32.0625ZM25.3125 25.3125H38.8125V28.6875H25.3125V25.3125Z" fill="white"/>
<path d="M13.5 45.5625H40.5C40.9476 45.5625 41.3768 45.3847 41.6932 45.0682C42.0097 44.7518 42.1875 44.3226 42.1875 43.875V37.125C42.1875 36.6774 42.0097 36.2482 41.6932 35.9318C41.3768 35.6153 40.9476 35.4375 40.5 35.4375H13.5C13.0524 35.4375 12.6232 35.6153 12.3068 35.9318C11.9903 36.2482 11.8125 36.6774 11.8125 37.125V43.875C11.8125 44.3226 11.9903 44.7518 12.3068 45.0682C12.6232 45.3847 13.0524 45.5625 13.5 45.5625ZM15.1875 38.8125H28.6875V42.1875H15.1875V38.8125Z" fill="white"/>
</g>
<defs>
<clipPath id="clip0_33_196">
<rect width="54" height="54" fill="white"/>
</clipPath>
</defs>
</svg>
